<svg xmlns="http://www.w3.org/2000/svg" width="1280" height="760" viewBox="0 0 1280 760" role="img" aria-labelledby="title desc">
  <title id="title">Application package and dependency map</title>
  <desc id="desc">Shows how the current React app, API, contracts, use cases, repository port, adapters, and data stores depend on one another.</desc>
  <style>
    .bg { fill: #0f172a; }
    .card { fill: #ffffff; stroke: #334155; stroke-width: 2; rx: 24; }
    .zone { fill: #f8fafc; stroke: #cbd5e1; stroke-width: 2; rx: 28; }
    .client { fill: #e0e7ff; stroke: #4338ca; stroke-width: 2; rx: 18; }
    .contract { fill: #dcfce7; stroke: #15803d; stroke-width: 2; rx: 18; }
    .api { fill: #cffafe; stroke: #0e7490; stroke-width: 2; rx: 18; }
    .domain { fill: #fef9c3; stroke: #a16207; stroke-width: 2; rx: 18; }
    .adapter { fill: #ffedd5; stroke: #c2410c; stroke-width: 2; rx: 18; }
    .data { fill: #fce7f3; stroke: #be185d; stroke-width: 2; rx: 18; }
    .text { font-family: Inter, ui-sans-serif, system-ui, -apple-system, BlinkMacSystemFont, "Segoe UI", sans-serif; fill: #0f172a; }
    .white { fill: #f8fafc; }
    .title { font-size: 30px; font-weight: 800; }
    .zoneTitle { font-size: 15px; font-weight: 800; letter-spacing: .08em; text-transform: uppercase; fill: #475569; }
    .label { font-size: 18px; font-weight: 800; }
    .small { font-size: 13px; fill: #334155; }
    .pill { font-size: 12px; fill: #475569; }
    .line { stroke: #475569; stroke-width: 2.4; fill: none; marker-end: url(#arrow); }
    .softLine { stroke: #94a3b8; stroke-width: 2; fill: none; marker-end: url(#arrowSoft); stroke-dasharray: 7 6; }
  </style>
  <defs>
    <marker id="arrow" markerWidth="10" markerHeight="10" refX="8" refY="3" orient="auto" markerUnits="strokeWidth"><path d="M0,0 L0,6 L9,3 z" fill="#475569"/></marker>
    <marker id="arrowSoft" markerWidth="10" markerHeight="10" refX="8" refY="3" orient="auto" markerUnits="strokeWidth"><path d="M0,0 L0,6 L9,3 z" fill="#94a3b8"/></marker>
    <filter id="shadow" x="-10%" y="-10%" width="120%" height="130%"><feDropShadow dx="0" dy="8" stdDeviation="8" flood-color="#020617" flood-opacity="0.18"/></filter>
  </defs>
  <rect class="bg" width="1280" height="760" />
  <text class="white title" x="56" y="58">Application design dependency map</text>
  <text class="white" x="56" y="88" font-size="15">The feature depends inward on contracts and ports. Infrastructure sits at the edge and can be replaced without rewriting the UI or use case.</text>

  <rect class="zone" x="48" y="130" width="280" height="500" filter="url(#shadow)" />
  <text class="text zoneTitle" x="78" y="166">Browser</text>
  <rect class="client" x="78" y="195" width="220" height="82" />
  <text class="text label" x="105" y="229">React route</text>
  <text class="text small" x="105" y="253">/organisation/profile</text>
  <rect class="client" x="78" y="315" width="220" height="82" />
  <text class="text label" x="105" y="349">Feature hooks</text>
  <text class="text small" x="105" y="373">TanStack Query</text>
  <rect class="client" x="78" y="435" width="220" height="82" />
  <text class="text label" x="105" y="469">Feature client</text>
  <text class="text small" x="105" y="493">fetch + credentials</text>

  <rect class="zone" x="380" y="130" width="250" height="500" filter="url(#shadow)" />
  <text class="text zoneTitle" x="410" y="166">Shared contract</text>
  <rect class="contract" x="410" y="275" width="190" height="110" />
  <text class="text label" x="438" y="311">contracts-</text>
  <text class="text label" x="438" y="335">organisation</text>
  <text class="text small" x="438" y="361">Zod DTO schemas</text>

  <rect class="zone" x="682" y="130" width="260" height="500" filter="url(#shadow)" />
  <text class="text zoneTitle" x="712" y="166">BFF / API</text>
  <rect class="api" x="712" y="195" width="200" height="82" />
  <text class="text label" x="740" y="229">Routes</text>
  <text class="text small" x="740" y="253">GET/PATCH profile</text>
  <rect class="api" x="712" y="315" width="200" height="82" />
  <text class="text label" x="740" y="349">Pipeline</text>
  <text class="text small" x="740" y="373">auth, permission, context</text>
  <rect class="domain" x="712" y="435" width="200" height="82" />
  <text class="text label" x="740" y="469">Use case</text>
  <text class="text small" x="740" y="493">pure TypeScript</text>

  <rect class="zone" x="994" y="130" width="238" height="500" filter="url(#shadow)" />
  <text class="text zoneTitle" x="1024" y="166">Infrastructure edge</text>
  <rect class="domain" x="1024" y="195" width="178" height="82" />
  <text class="text label" x="1050" y="229">Repo port</text>
  <text class="text small" x="1050" y="253">interface</text>
  <rect class="adapter" x="1024" y="315" width="178" height="82" />
  <text class="text label" x="1050" y="349">Postgres</text>
  <text class="text label" x="1050" y="371">adapter</text>
  <rect class="data" x="1024" y="435" width="178" height="82" />
  <text class="text label" x="1050" y="469">Data</text>
  <text class="text small" x="1050" y="493">organisations table</text>

  <path class="line" d="M188 277 V305" />
  <path class="line" d="M188 397 V425" />
  <path class="line" d="M298 476 C350 476 350 330 400 330" />
  <path class="line" d="M600 330 C655 330 655 236 702 236" />
  <path class="line" d="M812 277 V305" />
  <path class="line" d="M812 397 V425" />
  <path class="line" d="M912 476 C962 476 962 236 1014 236" />
  <path class="line" d="M1113 277 V305" />
  <path class="line" d="M1113 397 V425" />
  <path class="softLine" d="M712 476 C655 476 655 360 610 360" />

  <rect class="card" x="80" y="665" width="1120" height="52" rx="18" />
  <text class="text pill" x="110" y="697">Dependency direction: UI → contract/API → use case → port → adapter → data. Reverse dependencies are avoided so infrastructure does not leak back into product code.</text>
</svg>
